Jump_normalized_precision_landing01_filtered_grf
version=1
nRows=12
nColumns=37
inDegrees=yes
endheader
time		1_ground_force_vx		1_ground_force_vy		1_ground_force_vz		1_ground_force_px		1_ground_force_py		1_ground_force_pz		1_ground_torque_x		1_ground_torque_y		1_ground_torque_z		2_ground_force_vx		2_ground_force_vy		2_ground_force_vz		2_ground_force_px		2_ground_force_py		2_ground_force_pz		2_ground_torque_x		2_ground_torque_y		2_ground_torque_z		3_ground_force_vx		3_ground_force_vy		3_ground_force_vz		3_ground_force_px		3_ground_force_py		3_ground_force_pz		3_ground_torque_x		3_ground_torque_y		3_ground_torque_z		4_ground_force_vx		4_ground_force_vy		4_ground_force_vz		4_ground_force_px		4_ground_force_py		4_ground_force_pz		4_ground_torque_x		4_ground_torque_y		4_ground_torque_z		
0.151167		0.000005		0.000018		0.000009		0.084058		0.000000		0.275655		0.000011		-0.000004		-0.000002		-0.000000		-0.000000		-0.000000		-0.193221		0.000000		0.305417		-0.000000		0.000000		-0.000000		-46.675815		505.986095		47.534504		0.381303		1.274135		1.884310		2.518955		-27.306579		-2.565294		56.854937		561.825396		58.013607		-0.352261		1.266727		1.874611		3.040441		30.044841		3.102402		
0.154475		0.000019		0.000022		0.000120		0.084058		0.000000		0.275655		-0.000002		-0.000009		-0.000004		0.000000		0.000000		-0.000000		-0.193221		0.000000		0.305417		0.000000		-0.000000		0.000000		-45.709668		503.026567		44.905385		0.381319		1.274144		1.884338		2.478423		-27.274594		-2.434814		56.033485		561.394262		55.482524		-0.352230		1.266753		1.874675		3.011576		30.172697		2.981963		
0.157783		0.000032		0.000016		0.000235		0.084058		0.000000		0.275655		-0.000022		-0.000012		-0.000005		0.000000		0.000000		0.000000		-0.193221		0.000000		0.305417		0.000000		-0.000000		0.000000		-44.733367		500.041455		41.999578		0.381334		1.274143		1.884363		2.437524		-27.247295		-2.288556		55.262101		560.910837		52.784450		-0.352201		1.266779		1.874745		2.985424		30.302092		2.851571		
0.161091		0.000034		-0.000005		0.000287		0.084058		0.000000		0.275655		-0.000043		-0.000010		-0.000004		0.000000		0.000000		0.000000		-0.193221		0.000000		0.305417		0.000000		-0.000000		0.000000		-43.740088		497.074383		38.837865		0.381343		1.274134		1.884390		2.395355		-27.221476		-2.126890		54.576043		560.349267		49.994357		-0.352175		1.266804		1.874815		2.963818		30.430449		2.715002		
0.164399		0.000017		-0.000037		0.000199		0.084058		0.000000		0.275655		-0.000052		0.000001		-0.000000		0.000000		0.000000		0.000000		-0.193221		0.000000		0.305417		0.000000		-0.000000		0.000000		-42.716660		494.247513		35.451200		0.381342		1.274120		1.884420		2.350914		-27.200948		-1.951057		53.984834		559.692758		47.191924		-0.352151		1.266824		1.874883		2.947267		30.556069		2.576410		
0.167707		-0.000023		-0.000069		-0.000074		0.084058		0.000000		0.275655		-0.000036		0.000017		0.000007		0.000000		0.000000		0.000000		-0.193221		0.000000		0.305417		0.000000		-0.000000		0.000000		-41.648450		491.731637		31.886841		0.381326		1.274109		1.884455		2.303558		-27.197493		-1.763644		53.473371		558.941206		44.427766		-0.352126		1.266841		1.874948		2.934915		30.677800		2.438439		
0.171015		-0.000076		-0.000081		-0.000492		0.084058		0.000000		0.275655		0.000014		0.000036		0.000015		-0.000000		-0.000000		-0.000000		-0.193221		0.000000		0.305417		-0.000000		0.000000		-0.000000		-40.517530		489.688822		28.185330		0.381291		1.274105		1.884495		2.252780		-27.226767		-1.567107		53.011673		558.108241		41.707684		-0.352103		1.266855		1.875009		2.925068		30.795182		2.301337		
0.174323		-0.000121		-0.000052		-0.000902		0.084058		0.000000		0.275655		0.000091		0.000045		0.000019		-0.000000		-0.000000		-0.000000		-0.193221		0.000000		0.305417		-0.000000		0.000000		-0.000000		-39.299432		488.223454		24.353736		0.381243		1.274110		1.884537		2.197644		-27.301734		-1.361868		52.574326		557.212274		38.957436		-0.352081		1.266868		1.875073		2.916348		30.909103		2.161002		
0.177631		-0.000122		0.000030		-0.001046		0.084058		0.000000		0.275655		0.000165		0.000033		0.000014		-0.000000		-0.000000		-0.000000		-0.193221		0.000000		0.305417		-0.000000		0.000000		-0.000000		-37.971611		487.324131		20.388203		0.381188		1.274120		1.884578		2.136941		-27.425334		-1.147388		52.151321		556.265542		36.088254		-0.352063		1.266882		1.875142		2.908379		31.021870		2.012570		
0.180939		-0.000049		0.000152		-0.000648		0.084058		0.000000		0.275655		0.000190		-0.000008		-0.000004		-0.000000		-0.000000		-0.000000		-0.193221		0.000000		0.305417		-0.000000		0.000000		-0.000000		-36.526319		486.869873		16.291530		0.381138		1.274128		1.884616		2.069905		-27.590383		-0.923219		51.753773		555.272818		33.001834		-0.352052		1.266896		1.875220		2.902011		31.136045		1.850523		
0.184247		0.000105		0.000264		0.000430		0.084058		0.000000		0.275655		0.000115		-0.000073		-0.000030		0.000000		-0.000000		-0.000000		-0.193221		0.000000		0.305417		-0.000000		0.000000		-0.000000		-34.986651		486.654924		12.101901		0.381102		1.274128		1.884655		1.997324		-27.782291		-0.690866		51.399545		554.236542		29.653927		-0.352048		1.266911		1.875304		2.898347		31.252614		1.672137		
0.187556		0.000302		0.000294		0.001999		0.084058		0.000000		0.275655		-0.000082		-0.000139		-0.000058		0.000000		0.000000		0.000000		-0.193221		0.000000		0.305417		0.000000		-0.000000		0.000000		-33.402663		486.456925		7.883668		0.381084		1.274120		1.884698		1.921541		-27.984221		-0.453517		51.096411		553.168731		26.059696		-0.352050		1.266924		1.875390		2.897697		31.370415		1.477853		
